HIERARCHY
ROOT Hips
{
	OFFSET 53.078400 -8.368905 93.760803
	CHANNELS 6 Xposition Yposition Zposition Xrotation Yrotation Zrotation
	JOINT spine
	{
		OFFSET 0.000000 -0.429886 7.475601
		CHANNELS 3 Xrotation Yrotation Zrotation
		JOINT spine1
		{
			OFFSET 0.000000 -0.000002 9.923012
			CHANNELS 3 Xrotation Yrotation Zrotation
			JOINT spine2
			{
				OFFSET 0.000000 -0.000002 9.508041
				CHANNELS 3 Xrotation Yrotation Zrotation
				JOINT Neck
				{
					OFFSET 0.000000 -1.163844 24.411095
					CHANNELS 3 Xrotation Yrotation Zrotation
					JOINT Head
					{
						OFFSET 0.000000 -0.000001 7.375229
						CHANNELS 3 Xrotation Yrotation Zrotation
						End Site
						{
							OFFSET 0.000000 5.887407 17.852203
						}
					}
				}
				JOINT RightShoulder
				{
					OFFSET -4.003559 0.557467 10.267906
					CHANNELS 3 Xrotation Yrotation Zrotation
					JOINT RightArm
					{
						OFFSET 0.000000 -0.000003 13.467300
						CHANNELS 3 Xrotation Yrotation Zrotation
						JOINT RightArmRoll
						{
							OFFSET 0.000000 -0.000001 6.798584
							CHANNELS 3 Xrotation Yrotation Zrotation
							JOINT RightForeArm
							{
								OFFSET 0.000000 -0.000003 19.801804
								CHANNELS 3 Xrotation Yrotation Zrotation
								JOINT RightForeArmRoll
								{
									OFFSET 0.000000 -0.000002 7.629044
									CHANNELS 3 Xrotation Yrotation Zrotation
									JOINT RightHand
									{
										OFFSET 0.000000 -0.000002 15.309799
										CHANNELS 3 Xrotation Yrotation Zrotation
										End Site
										{
											OFFSET 0.000000 0.000000 0.100006
										}
									}
								}
							}
						}
					}
				}
				JOINT LeftShoulder
				{
					OFFSET 4.003559 0.557467 10.267906
					CHANNELS 3 Xrotation Yrotation Zrotation
					JOINT LeftArm
					{
						OFFSET 0.000000 -0.000003 13.467300
						CHANNELS 3 Xrotation Yrotation Zrotation
						JOINT LeftArmRoll
						{
							OFFSET 0.000000 -0.000001 6.798584
							CHANNELS 3 Xrotation Yrotation Zrotation
							JOINT LeftForeArm
							{
								OFFSET 0.000000 -0.000003 19.801804
								CHANNELS 3 Xrotation Yrotation Zrotation
								JOINT LeftForeArmRoll
								{
									OFFSET 0.000000 -0.000002 7.629059
									CHANNELS 3 Xrotation Yrotation Zrotation
									JOINT LeftHand
									{
										OFFSET 0.000000 -0.000002 15.309799
										CHANNELS 3 Xrotation Yrotation Zrotation
										End Site
										{
											OFFSET 0.000000 0.000000 0.100006
										}
									}
								}
							}
						}
					}
				}
			}
		}
	}
	JOINT RightUpLeg
	{
		OFFSET -6.626091 1.019270 -1.215050
		CHANNELS 3 Xrotation Yrotation Zrotation
		JOINT RightUpLegRoll
		{
			OFFSET 0.000000 -0.000003 17.951698
			CHANNELS 3 Xrotation Yrotation Zrotation
			JOINT RightLeg
			{
				OFFSET 0.000000 0.000004 -22.230400
				CHANNELS 3 Xrotation Yrotation Zrotation
				JOINT RightLegRoll
				{
					OFFSET 0.000000 -0.000004 22.303200
					CHANNELS 3 Xrotation Yrotation Zrotation
					JOINT RightFoot
					{
						OFFSET 0.000000 -0.000003 18.563599
						CHANNELS 3 Xrotation Yrotation Zrotation
						JOINT RightToeBase
						{
							OFFSET 0.000000 -0.000002 15.518295
							CHANNELS 3 Xrotation Yrotation Zrotation
							End Site
							{
								OFFSET 0.006577 0.866261 7.515381
							}
						}
					}
				}
			}
		}
	}
	JOINT LeftUpLeg
	{
		OFFSET 6.626091 1.019270 -1.215050
		CHANNELS 3 Xrotation Yrotation Zrotation
		JOINT LeftUpLegRoll
		{
			OFFSET 0.000000 -0.000003 17.951797
			CHANNELS 3 Xrotation Yrotation Zrotation
			JOINT LeftLeg
			{
				OFFSET 0.000000 -0.000003 22.230293
				CHANNELS 3 Xrotation Yrotation Zrotation
				JOINT LeftLegRoll
				{
					OFFSET 0.000000 -0.000004 22.509308
					CHANNELS 3 Xrotation Yrotation Zrotation
					JOINT LeftFoot
					{
						OFFSET 0.000000 -0.000003 18.357498
						CHANNELS 3 Xrotation Yrotation Zrotation
						JOINT LeftToeBase
						{
							OFFSET 0.000000 -0.000003 15.518295
							CHANNELS 3 Xrotation Yrotation Zrotation
							End Site
							{
								OFFSET -0.029476 0.866262 7.515396
							}
						}
					}
				}
			}
		}
	}
}
MOTION
Frames: 6
Frame Time: 0.041667
51.953999 -6.466559 93.696404 -0.776779 0.789019 -2.064962 -1.727398 0.015300 0.087017 0.549365 0.022225 0.175816 2.194431 0.024368 0.174333 -1.776402 -3.566809 -2.923301 5.803435 1.254310 -2.548234 -18.224632 -16.837752 -21.324564 -150.045719 -196.200900 -88.949274 -0.000012 0.000001 -0.000009 56.366515 -2.384529 0.668833 -0.000002 -0.000028 -3.009411 -5.000182 -7.999821 0.000034 -7.124179 72.183256 9.383316 -51.513014 106.149992 35.617220 0.000000 0.000001 0.000005 2.067385 8.112008 0.566802 -0.000002 0.000007 3.007449 -5.000201 7.999610 -0.000082 -3.382627 177.493367 -2.535198 -179.999991 0.000005 -0.982996 171.999326 -2.240997 -0.540911 -0.000002 0.000001 0.124018 70.107398 6.833657 2.214432 25.456960 -7.355613 -0.000001 -2.748009 178.018267 2.959960 -0.000005 -0.000004 -0.969215 -5.808882 1.980585 0.257286 0.000002 0.000001 -0.063464 69.243590 -6.856507 -2.202660 25.456959 7.355614 -0.000000 
51.955399 -6.464045 93.694199 -0.781602 0.797141 -2.056945 -1.727829 0.015353 0.086741 0.548143 0.022205 0.173543 2.193210 0.024313 0.171711 -1.744951 -3.598424 -2.930304 5.775865 1.257675 -2.550933 -18.218748 -16.845092 -21.315385 -149.998044 -196.194602 -88.981150 -0.000011 0.000001 -0.000009 56.319776 -2.378127 0.660342 0.000001 -0.000028 -3.009410 -5.000183 -7.999816 0.000035 -7.107201 72.171392 9.363823 -51.526807 106.163823 35.698660 0.000000 -0.000000 0.000003 2.095273 8.163983 0.562753 -0.000002 0.000007 3.007450 -5.000200 7.999610 -0.000081 -3.372778 177.485362 -2.537919 -179.999991 0.000005 -0.982996 172.006566 -2.243011 -0.540905 -0.000002 0.000001 0.123746 70.104939 6.833593 2.214373 25.456964 -7.355615 -0.000000 -2.753305 178.010289 2.956549 -0.000005 -0.000004 -0.969416 -5.826676 1.978782 0.258283 0.000002 0.000001 -0.064087 69.246848 -6.856425 -2.202845 25.456960 7.355614 0.000000 
51.973801 -6.455036 93.693497 -0.786262 0.804998 -2.048402 -1.728309 0.015464 0.086489 0.546812 0.022323 0.171277 2.191880 0.024397 0.169086 -1.712196 -3.629723 -2.937879 5.745993 1.259960 -2.554151 -18.212682 -16.853702 -21.305734 -149.951995 -196.184275 -89.011257 -0.000013 0.000002 -0.000009 56.266251 -2.370370 0.650960 -0.000002 -0.000029 -3.009400 -5.000182 -7.999821 0.000034 -7.090666 72.160020 9.344839 -51.543060 106.176950 35.781978 -0.000001 -0.000000 0.000002 2.123755 8.215692 0.558633 -0.000000 0.000007 3.007451 -5.000201 7.999609 -0.000081 -3.363166 177.478340 -2.540421 -179.999991 0.000005 -0.982996 172.013615 -2.244051 -0.539759 -0.000002 0.000001 0.123474 70.102575 6.833498 2.214400 25.456962 -7.355615 -0.000001 -2.758687 178.004319 2.953533 -0.000005 -0.000004 -0.969612 -5.844190 1.976730 0.259278 0.000003 0.000001 -0.064721 69.250100 -6.856379 -2.202835 25.456957 7.355614 -0.000001 
51.969505 -6.463710 93.690994 -0.790761 0.812620 -2.039464 -1.728847 0.015626 0.086256 0.545394 0.022571 0.169048 2.190460 0.024610 0.166498 -1.678565 -3.660593 -2.945941 5.714453 1.261373 -2.557822 -18.206421 -16.863566 -21.295821 -149.907790 -196.169890 -89.040477 -0.000011 0.000002 -0.000010 56.206129 -2.361316 0.640712 -0.000001 -0.000030 -3.009400 -5.000192 -7.999819 0.000033 -7.074593 72.149023 9.326389 -51.564462 106.188753 35.869961 0.000000 -0.000000 0.000003 2.152720 8.267043 0.554453 -0.000002 0.000007 3.007450 -5.000203 7.999609 -0.000081 -3.353776 177.471332 -2.542705 -179.999991 0.000005 -0.982996 172.020473 -2.245077 -0.539629 -0.000001 0.000001 0.123201 70.100321 6.833404 2.214424 25.456965 -7.355614 -0.000001 -2.764083 177.997339 2.951009 -0.000005 -0.000004 -0.969804 -5.861323 1.974442 0.260259 0.000003 0.000001 -0.065358 69.253351 -6.856297 -2.203018 25.456957 7.355614 -0.000000 
51.977001 -6.428285 93.687294 -0.795095 0.820041 -2.030300 -1.729429 0.015831 0.086042 0.543913 0.022939 0.166887 2.188980 0.024944 0.163990 -1.644492 -3.690972 -2.954384 5.681891 1.262131 -2.561904 -18.200060 -16.874505 -21.285707 -149.865197 -196.151654 -89.067026 -0.000011 0.000000 -0.000011 56.139620 -2.351017 0.629662 -0.000001 -0.000026 -3.009390 -5.000189 -7.999816 0.000033 -7.059040 72.138225 9.308527 -51.585362 106.200405 35.956694 -0.000001 0.000001 0.000003 2.182072 8.317941 0.550232 -0.000002 0.000006 3.007451 -5.000201 7.999609 -0.000081 -3.344565 177.464311 -2.544833 -179.999991 0.000005 -0.982996 172.027262 -2.247088 -0.539639 -0.000001 0.000001 0.122927 70.098074 6.833344 2.214452 25.456960 -7.355613 -0.000001 -2.769414 177.992353 2.948757 -0.000005 -0.000004 -0.969995 -5.878003 1.971965 0.261221 0.000003 0.000001 -0.065995 69.256616 -6.856250 -2.203108 25.456959 7.355615 -0.000000 
51.974899 -6.437559 93.690201 -0.799258 0.827293 -2.021019 -1.730050 0.016074 0.085845 0.542393 0.023418 0.164824 2.187460 0.025390 0.161599 -1.610405 -3.720753 -2.963114 5.648923 1.262472 -2.566344 -18.193715 -16.886681 -21.275679 -149.824393 -196.129620 -89.091826 -0.000012 0.000002 -0.000010 56.067022 -2.339514 0.617844 0.000003 -0.000029 -3.009391 -5.000183 -7.999817 0.000034 -7.044036 72.127597 9.291269 -51.605785 106.211914 36.042058 0.000000 0.000001 0.000004 2.211738 8.368291 0.545980 -0.000000 0.000007 3.007450 -5.000200 7.999610 -0.000081 -3.335522 177.458300 -2.546904 -179.999991 0.000005 -0.982996 172.034010 -2.248113 -0.539513 -0.000002 0.000001 0.122652 70.095923 6.833255 2.214567 25.456960 -7.355613 -0.000001 -2.774618 177.986370 2.946889 -0.000005 -0.000004 -0.970186 -5.894143 1.969312 0.262153 0.000002 0.000001 -0.066623 69.259962 -6.856175 -2.203186 25.456959 7.355614 -0.000000 
